<svg width="25" height="24" viewBox="0 0 25 24" fill="none" xmlns="http://www.w3.org/2000/svg">
<g clip-path="url(#clip0_3724_1387)">
<g filter="url(#filter0_d_3724_1387)">
<path d="M12.3335 2C14.8348 4.73835 16.2562 8.29203 16.3335 12C16.2562 15.708 14.8348 19.2616 12.3335 22M12.3335 2C9.83222 4.73835 8.41074 8.29203 8.3335 12C8.41074 15.708 9.83222 19.2616 12.3335 22M12.3335 2C6.81065 2 2.3335 6.47715 2.3335 12C2.3335 17.5228 6.81065 22 12.3335 22M12.3335 2C17.8563 2 22.3335 6.47715 22.3335 12C22.3335 17.5228 17.8563 22 12.3335 22M2.83352 9H21.8335M2.8335 15H21.8335" stroke="white" stroke-width="2" stroke-linecap="round" stroke-linejoin="round" shape-rendering="crispEdges"/>
</g>
</g>
<defs>
<filter id="filter0_d_3724_1387" x="-8.6665" y="-7" width="42" height="42" filterUnits="userSpaceOnUse" color-interpolation-filters="sRGB">
<feFlood flood-opacity="0" result="BackgroundImageFix"/>
<feColorMatrix in="SourceAlpha" type="matrix" values="0 0 0 0 0 0 0 0 0 0 0 0 0 0 0 0 0 0 127 0" result="hardAlpha"/>
<feOffset dy="2"/>
<feGaussianBlur stdDeviation="5"/>
<feComposite in2="hardAlpha" operator="out"/>
<feColorMatrix type="matrix" values="0 0 0 0 0.729544 0 0 0 0 0.786335 0 0 0 0 0.908654 0 0 0 1 0"/>
<feBlend mode="normal" in2="BackgroundImageFix" result="effect1_dropShadow_3724_1387"/>
<feBlend mode="normal" in="SourceGraphic" in2="effect1_dropShadow_3724_1387" result="shape"/>
</filter>
<clipPath id="clip0_3724_1387">
<rect width="24" height="24" fill="white" transform="translate(0.333496)"/>
</clipPath>
</defs>
</svg>
