<svg width="572" height="552" viewBox="0 0 572 552" fill="none" xmlns="http://www.w3.org/2000/svg">
<g opacity="0.3">
<path d="M267.853 -15.0898L171.556 39.6676C165.672 42.9819 162.072 49.1965 162.072 55.8945V197.725C162.072 217.404 151.757 235.634 134.865 245.785L9.07582 321.465C3.46828 324.848 0.00683594 330.924 0.00683594 337.484V447.137L267.853 294.88V-15.0898Z" fill="white"/>
<path d="M637.783 321.555L511.995 245.806C495.102 235.655 484.788 217.426 484.788 197.746V55.9843C484.788 49.2864 481.188 43.0718 475.303 39.7574L379.006 -15V294.901L646.853 447.158V337.574C646.853 331.013 643.391 324.938 637.783 321.555Z" fill="white"/>
<path d="M56.2803 539.287L154.101 595.424C159.847 598.739 166.977 598.739 172.723 595.424L294.843 525.821C312.151 515.947 333.335 515.947 350.642 525.821L472.831 595.424C478.576 598.739 485.707 598.739 491.453 595.424L589.273 539.287L322.742 384.336L56.2803 539.287Z" fill="white"/>
</g>
</svg>
