<svg width="330" height="322" viewBox="0 0 330 322" fill="none" xmlns="http://www.w3.org/2000/svg">
<path d="M4.83414 82.5677C-18.1133 -0.586316 66.8925 -9.0504 128.238 16.0578C164.031 28.9706 187.537 -11.1873 231.877 4.83923C276.217 20.8657 223.062 71.3493 290.908 97.2588C358.753 123.168 325.632 239.093 266.334 240.429C207.035 241.764 223.329 261.263 164.031 305.871C104.733 350.478 4.83428 288.508 29.6754 223.067C54.5164 157.625 29.6751 172.583 4.83414 82.5677Z" stroke="url(#paint0_linear_3724_1616)"/>
<path d="M132.444 147.282C129.796 139.362 142.198 126.585 152.17 132.038C161.301 137.031 170.6 133.663 176.744 135.889C192.917 141.75 186.968 144.852 194.198 151.812C202.996 160.282 207.194 182.46 186.968 182.46C170.333 182.46 175.31 190.539 162.854 194.119C150.398 197.699 136.271 191.605 136.271 175.562C136.271 169.537 136.854 160.473 132.444 147.282Z" stroke="url(#paint1_linear_3724_1616)"/>
<path d="M16.4285 88.0478C-4.67345 11.7332 73.7319 2.87702 130.407 26.1984C163.776 38.3912 185.99 1.5779 226.858 16.3498C268.637 31.4521 219.774 77.6283 282.109 101.815C344.587 126.139 314.858 233.542 259.112 234.756C203.692 235.97 218.957 254.431 163.917 295.308C108.878 336.186 16.7766 279.296 39.3594 218.345C61.9422 158.305 39.4121 171.079 16.4285 88.0478Z" stroke="url(#paint2_linear_3724_1616)"/>
<path d="M28.0234 93.5278C8.7669 24.0526 80.5719 14.8044 132.577 36.3389C163.522 47.8118 184.445 14.343 221.84 27.8604C261.059 42.0385 216.487 83.9072 273.312 106.371C330.421 129.11 304.085 227.99 251.891 229.083C200.35 230.176 214.586 247.598 163.804 284.746C113.023 321.894 28.7194 270.084 49.0439 213.623C69.3684 158.985 49.1496 169.575 28.0234 93.5278Z" stroke="url(#paint3_linear_3724_1616)"/>
<path d="M39.6307 99.0054C22.2195 36.3697 87.4241 26.7294 134.759 46.4771C163.28 57.23 182.911 27.1058 216.834 39.3686C253.492 52.6225 213.212 90.1838 264.526 110.925C316.268 132.079 293.324 222.436 244.682 223.407C197.02 224.379 210.227 240.763 163.704 274.181C117.181 307.599 40.6745 260.869 58.7408 208.899C76.807 159.662 58.8995 168.069 39.6307 99.0054Z" stroke="url(#paint4_linear_3724_1616)"/>
<path d="M51.5421 104.826C35.9765 49.0303 94.5806 38.9979 137.245 56.9587C163.343 66.9916 181.682 40.212 212.133 51.2202C246.23 63.5499 210.241 96.8038 256.045 115.823C302.419 135.39 282.868 217.226 237.778 218.076C193.994 218.925 206.172 234.272 163.907 263.96C121.643 293.648 52.934 251.997 68.7419 204.519C84.5499 160.683 68.9536 166.906 51.5421 104.826Z" stroke="url(#paint5_linear_3724_1616)"/>
<path d="M62.8415 110.245C49.1212 61.288 101.125 50.8635 139.119 67.0374C162.793 76.3504 179.841 52.9154 206.819 62.669C238.356 74.0745 206.659 103.021 246.952 120.317C287.957 138.299 271.799 211.612 230.261 212.341C190.355 213.069 201.505 227.377 163.499 253.336C125.492 279.294 64.5812 242.723 78.1309 199.735C91.6806 161.301 78.3955 165.34 62.8415 110.245Z" stroke="url(#paint6_linear_3724_1616)"/>
<path d="M74.4408 116.331C62.566 74.2136 107.969 63.397 141.293 77.7841C162.543 86.3771 178.3 66.2867 201.805 74.7857C230.782 85.267 203.376 109.906 238.158 125.48C273.796 141.876 261.031 206.667 223.045 207.274C187.017 207.881 197.138 221.151 163.39 243.38C129.642 265.608 76.5284 234.117 87.8198 195.619C99.1112 162.587 88.1375 164.442 74.4408 116.331Z" stroke="url(#paint7_linear_3724_1616)"/>
<path d="M86.0365 122.435C76.0071 87.1571 114.81 75.9485 143.464 88.5487C162.29 96.4218 176.755 79.6759 196.788 86.9203C223.204 96.4774 200.089 116.809 229.361 130.66C259.631 145.471 250.258 201.739 215.824 202.225C183.675 202.71 192.768 214.942 163.278 233.441C133.788 251.94 88.4721 225.528 97.5052 191.522C106.538 163.891 97.8758 163.562 86.0365 122.435Z" stroke="url(#paint8_linear_3724_1616)"/>
<path d="M97.641 128.564C89.457 100.125 121.66 88.5247 145.643 99.3381C162.045 106.491 175.219 93.0899 191.78 99.0797C215.635 107.713 196.812 123.737 220.573 135.865C245.475 149.091 239.495 196.836 208.613 197.201C180.342 197.565 188.406 208.759 163.175 223.528C137.943 238.297 100.424 216.965 107.199 187.449C113.974 165.22 107.623 162.707 97.641 128.564Z" stroke="url(#paint9_linear_3724_1616)"/>
<path d="M109.242 134.734C102.904 113.135 128.506 101.142 147.819 110.169C161.798 116.602 173.68 106.545 186.768 111.281C208.063 118.989 193.531 130.706 211.782 141.112C231.316 152.752 228.728 191.975 201.398 192.218C177.006 192.461 184.041 202.616 163.068 213.656C142.095 224.695 112.374 208.442 116.89 183.417C121.407 166.59 117.367 161.893 109.242 134.734Z" stroke="url(#paint10_linear_3724_1616)"/>
<path d="M120.849 140.963C116.356 126.203 135.358 113.818 150 121.058C161.555 126.771 172.146 120.059 181.762 123.54C200.496 130.324 190.255 137.734 202.996 146.417C217.161 156.472 217.967 187.172 194.189 187.293C173.675 187.415 179.682 196.532 162.967 203.842C146.252 211.152 124.328 199.978 126.586 179.444C128.845 168.018 127.116 161.138 120.849 140.963Z" stroke="url(#paint11_linear_3724_1616)"/>
<defs>
<linearGradient id="paint0_linear_3724_1616" x1="164.827" y1="1" x2="164.827" y2="321" gradientUnits="userSpaceOnUse">
<stop stop-color="#E3EAF6"/>
<stop offset="1" stop-color="#D3DEF5"/>
</linearGradient>
<linearGradient id="paint1_linear_3724_1616" x1="166.789" y1="130.724" x2="166.789" y2="195.111" gradientUnits="userSpaceOnUse">
<stop stop-color="#E3EAF6"/>
<stop offset="1" stop-color="#D3DEF5"/>
</linearGradient>
<linearGradient id="paint2_linear_3724_1616" x1="164.988" y1="12.7939" x2="164.988" y2="309.145" gradientUnits="userSpaceOnUse">
<stop stop-color="#E3EAF6"/>
<stop offset="1" stop-color="#D3DEF5"/>
</linearGradient>
<linearGradient id="paint3_linear_3724_1616" x1="165.15" y1="24.5876" x2="165.15" y2="297.291" gradientUnits="userSpaceOnUse">
<stop stop-color="#E3EAF6"/>
<stop offset="1" stop-color="#D3DEF5"/>
</linearGradient>
<linearGradient id="paint4_linear_3724_1616" x1="165.325" y1="36.3787" x2="165.325" y2="285.435" gradientUnits="userSpaceOnUse">
<stop stop-color="#E3EAF6"/>
<stop offset="1" stop-color="#D3DEF5"/>
</linearGradient>
<linearGradient id="paint5_linear_3724_1616" x1="165.805" y1="48.5127" x2="165.805" y2="273.922" gradientUnits="userSpaceOnUse">
<stop stop-color="#E3EAF6"/>
<stop offset="1" stop-color="#D3DEF5"/>
</linearGradient>
<linearGradient id="paint6_linear_3724_1616" x1="165.674" y1="59.9663" x2="165.674" y2="262.007" gradientUnits="userSpaceOnUse">
<stop stop-color="#E3EAF6"/>
<stop offset="1" stop-color="#D3DEF5"/>
</linearGradient>
<linearGradient id="paint7_linear_3724_1616" x1="165.845" y1="71.7595" x2="165.845" y2="250.76" gradientUnits="userSpaceOnUse">
<stop stop-color="#E3EAF6"/>
<stop offset="1" stop-color="#D3DEF5"/>
</linearGradient>
<linearGradient id="paint8_linear_3724_1616" x1="166.014" y1="83.5522" x2="166.014" y2="239.533" gradientUnits="userSpaceOnUse">
<stop stop-color="#E3EAF6"/>
<stop offset="1" stop-color="#D3DEF5"/>
</linearGradient>
<linearGradient id="paint9_linear_3724_1616" x1="166.196" y1="95.3435" x2="166.196" y2="228.332" gradientUnits="userSpaceOnUse">
<stop stop-color="#E3EAF6"/>
<stop offset="1" stop-color="#D3DEF5"/>
</linearGradient>
<linearGradient id="paint10_linear_3724_1616" x1="166.38" y1="107.137" x2="166.38" y2="217.176" gradientUnits="userSpaceOnUse">
<stop stop-color="#E3EAF6"/>
<stop offset="1" stop-color="#D3DEF5"/>
</linearGradient>
<linearGradient id="paint11_linear_3724_1616" x1="166.579" y1="118.931" x2="166.579" y2="206.087" gradientUnits="userSpaceOnUse">
<stop stop-color="#E3EAF6"/>
<stop offset="1" stop-color="#D3DEF5"/>
</linearGradient>
</defs>
</svg>
