<svg width="142" height="21" viewBox="0 0 142 21" fill="none" xmlns="http://www.w3.org/2000/svg">
<g clip-path="url(#clip0_1_221)">
<path d="M31.1761 6.8129H27.9298V4.45776H36.977V6.8129H33.6884V16.5839H31.1761V6.8129Z" fill="black"/>
<path d="M38.4731 4.45776H46.0664V6.8129H40.9571V9.30823H45.0361V11.6634H40.9571V14.2288H46.0664V16.5839H38.4731V4.45776Z" fill="black"/>
<path d="M53.3635 4.24756C55.8617 4.24756 57.9505 5.52326 59.0091 7.47186L56.8355 8.66345C56.1157 7.41578 54.9442 6.63074 53.3635 6.63074C51.2322 6.63074 49.5668 8.38307 49.5668 10.5139C49.5668 12.6448 51.2322 14.3971 53.3635 14.3971C54.9442 14.3971 56.1157 13.612 56.8355 12.3644L59.0091 13.556C57.9647 15.5046 55.8617 16.7803 53.3635 16.7803C49.8773 16.7803 47.0544 13.9765 47.0544 10.5139C47.0544 7.0513 49.8773 4.24756 53.3635 4.24756Z" fill="black"/>
<path d="M60.7733 4.45776H63.2715V9.29421H68.5643V4.45776H71.0625V16.5839H68.5643V11.6494H63.2715V16.5839H60.7733V4.45776Z" fill="black"/>
<path d="M86.4046 16.5839L80.1379 8.67739V16.5839H77.6397V4.45776H79.7851L86.0376 12.3643V4.45776H88.5358V16.5839H86.4046Z" fill="black"/>
<path d="M94.8448 4.45776H97.0607L102.339 16.5839H99.7283L98.5427 13.8223H93.3487L92.1631 16.5839H89.5803L94.8448 4.45776ZM97.6253 11.6494L95.9457 7.7101L94.252 11.6494H97.6253Z" fill="black"/>
<path d="M104.442 6.8129H101.196V4.45776H110.243V6.8129H106.955V16.5839H104.442V6.8129Z" fill="black"/>
<path d="M111.739 4.45776H114.238V16.5839H111.739V4.45776Z" fill="black"/>
<path d="M122.226 16.7942C118.74 16.7942 115.917 13.9904 115.917 10.5278C115.917 7.06521 118.74 4.26147 122.226 4.26147C125.712 4.26147 128.535 7.06521 128.535 10.5278C128.549 13.9904 125.727 16.7942 122.226 16.7942ZM122.226 14.397C124.357 14.397 126.023 12.6447 126.023 10.5138C126.023 8.38297 124.357 6.63063 122.226 6.63063C120.095 6.63063 118.43 8.38297 118.43 10.5138C118.43 12.6447 120.095 14.397 122.226 14.397Z" fill="black"/>
<path d="M138.98 16.5839L132.727 8.67739V16.5839H130.229V4.45776H132.374L138.627 12.3643V4.45776H141.125V16.5839H138.98Z" fill="black"/>
<path d="M21.2115 11.5654C21.2538 11.215 21.2679 10.8645 21.2679 10.5C21.2679 10.1355 21.2538 9.78505 21.2115 9.43458H16.1022L20.8163 7.48598C20.6046 6.79907 20.3364 6.14019 19.9977 5.50935L15.2836 7.45794L18.8968 3.86916C18.4451 3.32243 17.937 2.80374 17.3724 2.35514L13.7592 5.94392L15.7211 1.26168C15.1001 0.925234 14.4226 0.64486 13.731 0.448598L11.7691 5.13084V0.0560748C11.4163 0.0140187 11.0634 0 10.6965 0C10.3295 0 9.97665 0.0140187 9.6238 0.0560748V5.13084L7.67605 0.434579C6.98446 0.64486 6.3211 0.911215 5.68596 1.24766L7.64782 5.92991L4.03461 2.35514C3.48416 2.80374 2.96194 3.30841 2.51029 3.86916L6.1235 7.45794L1.39527 5.50935C1.05653 6.12617 0.774249 6.79907 0.576652 7.48598L5.29077 9.43458H0.181456C0.139114 9.78505 0.125 10.1355 0.125 10.5C0.125 10.8645 0.139114 11.215 0.181456 11.5654H5.29077L0.576652 13.514C0.788363 14.2009 1.05653 14.8598 1.39527 15.4907L6.10939 13.5421L2.51029 17.1308C2.96194 17.6776 3.47005 18.1963 4.03461 18.6449L7.64782 15.0561L5.68596 19.7383C6.30698 20.0748 6.98446 20.3551 7.67605 20.5514L9.63791 15.8692V20.9439C9.99077 20.986 10.3436 21 10.7106 21C11.0776 21 11.4304 20.986 11.7833 20.9439V15.8692L13.7451 20.5514C14.4367 20.3411 15.1001 20.0748 15.7352 19.7383L13.7733 15.0561L17.3866 18.6449C17.937 18.1963 18.4592 17.6916 18.9109 17.1308L15.2977 13.5421L20.0118 15.4907C20.3505 14.8738 20.6328 14.2009 20.8304 13.514L16.1022 11.5654H21.2115ZM10.6965 14.3411C8.55113 14.3411 6.81509 12.6168 6.81509 10.486C6.81509 8.35514 8.55113 6.63084 10.6965 6.63084C12.8418 6.63084 14.5779 8.35514 14.5779 10.486C14.5779 12.6308 12.8418 14.3411 10.6965 14.3411Z" fill="black"/>
</g>
<defs>
<clipPath id="clip0_1_221">
<rect width="141" height="21" fill="white" transform="translate(0.125)"/>
</clipPath>
</defs>
</svg>
